Coordinates
version=1
nRows=26
nColumns=11
inDegrees=yes

Units are S.I. units (second, meters, Newtons, ...)
If the header above contains a line with 'inDegrees', this indicates whether rotational values are in degrees (yes) or radians (no).

endheader
time	pelvis_tilt	pelvis_tx	pelvis_ty	hip_flexion_l	hip_flexion_r	knee_angle_l	knee_angle_r	ankle_angle_l	ankle_angle_r	lumbar_extension
      2.32000000	     -0.23983694	     -0.76696370	      0.89132819	     -7.09062499	     34.19495103	    -14.07905059	    -24.31014204	     16.88082484	      7.65579677	    -17.44597464
      2.33000000	      0.13265417	     -0.75502190	      0.88915278	     -8.47597711	     34.00614389	    -13.88098455	    -22.96223396	     17.09476798	      7.61113627	    -17.71847667
      2.34000000	      0.51634685	     -0.74303759	      0.88686848	     -9.70337512	     33.82390541	    -13.99703345	    -21.99517698	     17.51206147	      7.41996134	    -17.97418860
      2.35000000	      0.88329282	     -0.73057039	      0.88462841	    -10.96465332	     33.65777280	    -14.04644156	    -21.41940212	     17.88915564	      7.16532927	    -18.13802842
      2.36000000	      1.04645673	     -0.71799363	      0.88198615	    -11.91255714	     33.73922455	    -14.33159077	    -21.20642729	     18.11414434	      6.92544650	    -18.03483674
      2.37000000	      1.30887434	     -0.70526585	      0.87964627	    -12.89622995	     33.64736465	    -14.71175611	    -21.19421019	     18.27203562	      6.64706498	    -18.02287026
      2.38000000	      1.24211551	     -0.69222144	      0.87668434	    -13.34294353	     33.83880749	    -15.51120327	    -21.37911416	     18.44745400	      6.38862064	    -17.57724125
      2.39000000	      1.27260134	     -0.67873708	      0.87399682	    -13.78941320	     33.73265210	    -16.53085795	    -21.45223222	     18.35712731	      6.04023374	    -17.20472749
      2.40000000	      1.29019060	     -0.66475404	      0.87130197	    -14.17534626	     33.41123803	    -17.68523749	    -21.43391893	     18.21954397	      4.82907043	    -16.74158202
      2.41000000	      1.08210939	     -0.65127689	      0.86891801	    -14.12852423	     33.19288698	    -19.11621956	    -21.63729345	     17.82776803	      0.86365745	    -16.09361287
      2.42000000	      0.44948819	     -0.63848126	      0.86662045	    -13.34994162	     33.58277751	    -20.92494669	    -22.90687953	     17.29289267	     -0.36428479	    -15.06713687
      2.43000000	     -0.20991664	     -0.62566345	      0.86456082	    -12.51690540	     34.49560365	    -22.72629233	    -24.78839361	     16.60963005	     -0.06293639	    -13.98427244
      2.44000000	     -0.71601672	     -0.61295970	      0.86356697	    -11.64429767	     35.32036041	    -24.81756794	    -26.30471089	     15.34420390	     -0.88886856	    -13.15362141
      2.45000000	     -1.32600399	     -0.60052794	      0.86284914	    -10.42605167	     36.18204824	    -27.20752994	    -27.82896582	     13.81716921	     -2.36604614	    -12.20346398
      2.46000000	     -1.73808606	     -0.58815927	      0.86293036	     -9.17882486	     36.56745842	    -29.88703642	    -29.25653855	     12.03211153	     -3.23433247	    -11.51154499
      2.47000000	     -1.86713284	     -0.57548704	      0.86378666	     -8.09524367	     36.30243441	    -32.75752912	    -30.09842297	     10.07466620	     -3.63360151	    -11.08607715
      2.48000000	     -2.01313675	     -0.56280248	      0.86494350	     -6.77386632	     35.86214398	    -35.94248138	    -30.55660977	      8.14511423	     -3.96827516	    -10.61025302
      2.49000000	     -1.97559449	     -0.55008383	      0.86643335	     -5.45852833	     35.15444087	    -39.14798385	    -30.99450040	      6.11900176	     -3.95407924	    -10.30950122
      2.50000000	     -1.83522504	     -0.53731126	      0.86847893	     -4.24807843	     34.21194246	    -42.02307337	    -31.28473906	      3.89546394	     -3.39923104	    -10.10621922
      2.51000000	     -2.08184429	     -0.52520839	      0.86992875	     -2.46345639	     33.70938614	    -44.89158724	    -31.51824164	      1.80793153	     -2.90482038	     -9.52536081
      2.52000000	     -2.37590457	     -0.51355228	      0.87153826	     -0.48142953	     33.23430273	    -47.60079084	    -31.66435483	      0.05022525	     -2.26703001	     -8.91134904
      2.53000000	     -2.62675494	     -0.50239430	      0.87363862	      1.47463264	     32.65272031	    -49.94220683	    -31.59816660	     -1.60221290	     -1.78261851	     -8.41699745
      2.54000000	     -2.80502428	     -0.49125446	      0.87621141	      3.29966324	     31.89555550	    -51.88759717	    -31.37691063	     -3.04300638	     -1.26442148	     -8.02793652
      2.55000000	     -3.02637818	     -0.48071565	      0.87877375	      5.21686532	     31.18321824	    -53.40053314	    -31.05037526	     -3.58752491	     -0.95239643	     -7.67337819
      2.56000000	     -3.15358304	     -0.47022109	      0.88157361	      7.04080046	     30.33721445	    -54.57085007	    -30.65986168	     -4.82575457	     -0.48085925	     -7.45537228
      2.57000000	     -4.34328090	     -0.45893853	      0.88224103	     10.00508469	     30.59593962	    -55.52609560	    -30.31901625	     -5.81172763	      0.06622105	     -5.81926749
